<svg width="360" height="360" viewBox="0 0 360 360" fill="none" xmlns="http://www.w3.org/2000/svg">
<path fill-rule="evenodd" clip-rule="evenodd" d="M139.5 17.5C138.533 16.1938 137.199 15.5271 135.5 15.5C134.381 22.2531 137.048 26.2531 143.5 27.5C143.631 28.3764 143.298 29.0431 142.5 29.5C137.795 28.2944 134.962 25.2944 134 20.5C133.259 17.438 133.425 14.438 134.5 11.5C136.173 9.91373 138.173 9.24706 140.5 9.49999C140.599 12.2372 140.265 14.9039 139.5 17.5Z" fill="#FBF7DE"/>
<path fill-rule="evenodd" clip-rule="evenodd" d="M271.5 21.5C275.149 28.222 275.482 35.222 272.5 42.5C267.962 46.4518 267.462 45.7852 271 40.5C273.592 33.4832 272.759 26.9832 268.5 21C269.577 20.5304 270.577 20.6971 271.5 21.5Z" fill="#F9EB9C"/>
<path fill-rule="evenodd" clip-rule="evenodd" d="M102.5 47.5C101.432 48.4345 100.099 48.7678 98.5 48.5C98.5 49.5 98.5 50.5 98.5 51.5C105.483 52.1023 105.817 52.769 99.5 53.5C95.5597 50.1793 91.2264 49.6793 86.5 52C77.0558 57.1284 73.5558 64.9617 76 75.5C76.4983 77.5444 77.665 78.8777 79.5 79.5C79.5 80.5 79.5 81.5 79.5 82.5C76.911 82.539 74.911 81.539 73.5 79.5C68.8524 74.0662 68.3524 68.0662 72 61.5C76.4388 55.3716 82.2721 51.3716 89.5 49.5C87.9688 46.1008 86.1354 42.7675 84 39.5C80.1478 29.7223 82.6478 22.2223 91.5 17C92.9437 16.2195 94.277 16.3861 95.5 17.5C93.8509 19.6499 92.0176 21.6499 90 23.5C86.1673 31.1693 87.1673 38.1693 93 44.5C93.4828 45.448 93.6495 46.448 93.5 47.5C96.5 47.5 99.5 47.5 102.5 47.5Z" fill="#DBC17A"/>
<path fill-rule="evenodd" clip-rule="evenodd" d="M139.5 17.5C139.908 18.6431 140.575 19.6431 141.5 20.5C144.359 22.051 147.359 23.051 150.5 23.5C147.665 24.2006 144.665 24.3673 141.5 24C144.365 26.2863 147.698 27.1197 151.5 26.5C149.052 27.4731 146.385 27.8064 143.5 27.5C137.048 26.2531 134.381 22.2531 135.5 15.5C137.199 15.5271 138.533 16.1938 139.5 17.5Z" fill="#E9D191"/>
<path fill-rule="evenodd" clip-rule="evenodd" d="M150.5 23.5C152.857 23.3367 155.19 23.5034 157.5 24C155.685 24.7568 154.019 25.5902 152.5 26.5C152.167 26.5 151.833 26.5 151.5 26.5C147.698 27.1197 144.365 26.2863 141.5 24C144.665 24.3673 147.665 24.2006 150.5 23.5Z" fill="#E1D574"/>
<path fill-rule="evenodd" clip-rule="evenodd" d="M150.5 23.5C151.793 22.8418 153.293 22.5085 155 22.5C166.26 25.888 177.593 26.2213 189 23.5C191.111 23.7006 192.945 24.3673 194.5 25.5C192.265 25.2053 190.265 25.5386 188.5 26.5C178.828 26.7087 169.161 27.042 159.5 27.5C159.53 26.5028 159.03 25.8361 158 25.5C156.234 26.2335 154.401 26.5668 152.5 26.5C154.019 25.5902 155.685 24.7568 157.5 24C155.19 23.5034 152.857 23.3367 150.5 23.5Z" fill="#F6F6DC"/>
<path fill-rule="evenodd" clip-rule="evenodd" d="M221.5 12.5C225.586 21.9442 222.252 26.9442 211.5 27.5C207.917 27.3053 204.583 26.3053 201.5 24.5C205.459 23.6735 209.459 23.1735 213.5 23C218.457 21.2555 221.124 17.7555 221.5 12.5Z" fill="#BAA35F"/>
<path fill-rule="evenodd" clip-rule="evenodd" d="M221.5 16.5C222.843 20.3286 221.509 23.1619 217.5 25C211.01 25.5534 211.01 24.8868 217.5 23C219.734 21.3621 221.067 19.1955 221.5 16.5Z" fill="#FAE7A1"/>
<path fill-rule="evenodd" clip-rule="evenodd" d="M271.5 20.5C271.5 20.8333 271.5 21.1667 271.5 21.5C270.577 20.6971 269.577 20.5304 268.5 21C272.759 26.9832 273.592 33.4832 271 40.5C267.462 45.7852 267.962 46.4518 272.5 42.5C271.611 44.736 270.278 46.736 268.5 48.5C275.63 51.4632 281.796 55.7965 287 61.5C288.379 64.5148 289.212 67.6815 289.5 71C289.693 73.0081 289.026 74.5081 287.5 75.5C287.665 72.1501 287.498 68.8168 287 65.5C286.722 64.5842 286.222 63.9175 285.5 63.5C284.218 61.8205 282.551 60.4871 280.5 59.5C274.39 50.7347 266.724 48.9013 257.5 54C255.527 54.4955 253.527 54.6621 251.5 54.5C249.265 54.2053 247.265 54.5386 245.5 55.5C243.5 56.1667 241.5 56.8333 239.5 57.5C238.448 57.6495 237.448 57.4828 236.5 57C239.951 55.7035 243.285 54.2035 246.5 52.5C251.887 47.2968 253.721 40.9635 252 33.5C247.441 25.2916 246.608 25.625 249.5 34.5C249.308 36.5767 248.808 38.5767 248 40.5C247.821 36.9748 247.321 33.6414 246.5 30.5C246.167 29.8333 245.833 29.1667 245.5 28.5C243.408 23.8303 240.075 22.497 235.5 24.5C233.566 25.1103 231.899 26.1103 230.5 27.5C227.663 32.5021 228.33 37.1687 232.5 41.5C228.553 42.8598 225.886 41.5265 224.5 37.5C224.435 37.0618 224.601 36.7284 225 36.5C225.956 37.5786 226.789 38.7453 227.5 40C228.167 40.6667 228.833 40.6667 229.5 40C228.144 37.6024 226.977 35.1024 226 32.5C225.329 31.7476 224.496 31.4142 223.5 31.5C226.148 24.0033 231.481 20.8367 239.5 22C252.454 25.8177 257.12 34.3177 253.5 47.5C257.182 47.6653 260.848 47.4986 264.5 47C274.065 36.8007 273.732 26.9674 263.5 17.5C263.667 17.1667 263.833 16.8333 264 16.5C265.399 17.2266 266.899 17.7266 268.5 18C269.942 18.3768 270.942 19.2101 271.5 20.5Z" fill="#C3B062"/>
<path fill-rule="evenodd" clip-rule="evenodd" d="M235.5 24.5C240.075 22.497 243.408 23.8303 245.5 28.5C243.405 27.588 241.405 26.4213 239.5 25C238.207 24.51 236.873 24.3433 235.5 24.5Z" fill="#F9F3CA"/>
<path fill-rule="evenodd" clip-rule="evenodd" d="M167.5 30.5C170.385 30.1936 173.052 30.5269 175.5 31.5C170.177 30.5804 165.843 32.0804 162.5 36C161.167 36.3333 159.833 36.6667 158.5 37C154.16 41.0069 150.16 45.3402 146.5 50C144.251 52.4115 141.584 54.2449 138.5 55.5C135.038 54.5184 131.371 54.185 127.5 54.5C132.997 54.0748 138.33 52.7415 143.5 50.5C147.828 44.6582 152.828 39.1582 158.5 34C161.255 32.0468 164.255 30.8801 167.5 30.5Z" fill="#E7D9A8"/>
<path fill-rule="evenodd" clip-rule="evenodd" d="M230.5 27.5C230.682 29.5914 230.348 31.5914 229.5 33.5C230.435 36.4152 231.768 39.0819 233.5 41.5C232.927 44.0853 231.261 45.0853 228.5 44.5C228.5 45.5 228.5 46.5 228.5 47.5C224.518 44.8482 220.851 41.8482 217.5 38.5C219.044 38.7031 220.378 39.3698 221.5 40.5C222.919 39.9953 223.585 38.9953 223.5 37.5C223.833 37.5 224.167 37.5 224.5 37.5C225.886 41.5265 228.553 42.8598 232.5 41.5C228.33 37.1687 227.663 32.5021 230.5 27.5Z" fill="#FAF4DB"/>
<path fill-rule="evenodd" clip-rule="evenodd" d="M188.5 26.5C190.265 25.5386 192.265 25.2053 194.5 25.5C203.392 27.7387 211.059 32.072 217.5 38.5C220.851 41.8482 224.518 44.8482 228.5 47.5C231.132 48.472 233.465 49.8053 235.5 51.5C235.5 51.8333 235.5 52.1667 235.5 52.5C231.286 50.9585 227.286 48.9585 223.5 46.5C218.245 41.2027 212.579 36.3694 206.5 32C200.954 28.6513 194.954 26.8179 188.5 26.5Z" fill="#B7B170"/>
<path fill-rule="evenodd" clip-rule="evenodd" d="M167.5 30.5C173.687 30.2332 180.021 29.8998 186.5 29.5C192.63 29.7322 197.963 31.8989 202.5 36C206.67 41.0023 211.004 45.8356 215.5 50.5C215.5 50.8333 215.5 51.1667 215.5 51.5C209.076 45.2495 202.409 39.0828 195.5 33C188.865 31.7237 182.199 31.2237 175.5 31.5C173.052 30.5269 170.385 30.1936 167.5 30.5Z" fill="#BCB27F"/>
<path fill-rule="evenodd" clip-rule="evenodd" d="M223.5 31.5C224.496 31.4142 225.329 31.7476 226 32.5C226.977 35.1024 228.144 37.6024 229.5 40C228.833 40.6667 228.167 40.6667 227.5 40C226.789 38.7453 225.956 37.5786 225 36.5C224.601 36.7284 224.435 37.0618 224.5 37.5C224.167 37.5 223.833 37.5 223.5 37.5C223.5 35.5 223.5 33.5 223.5 31.5Z" fill="#E7CE74"/>
<path fill-rule="evenodd" clip-rule="evenodd" d="M271.5 20.5C275.033 23.2374 276.7 26.9041 276.5 31.5C276.72 35.8507 275.386 39.5173 272.5 42.5C275.482 35.222 275.149 28.222 271.5 21.5C271.5 21.1667 271.5 20.8333 271.5 20.5Z" fill="#BFB07C"/>
<path fill-rule="evenodd" clip-rule="evenodd" d="M111.5 28.5C110.167 29.5 108.833 30.5 107.5 31.5C107.351 30.448 107.517 29.448 108 28.5C117.586 18.8383 126.586 19.1717 135 29.5C137.079 36.6922 134.579 41.0256 127.5 42.5C128.008 39.0023 129.008 35.669 130.5 32.5C129.743 26.7771 126.409 23.7771 120.5 23.5C118.701 23.577 117.034 24.077 115.5 25C114.468 26.6268 113.134 27.7934 111.5 28.5Z" fill="#E1CF8F"/>
<path fill-rule="evenodd" clip-rule="evenodd" d="M159.5 27.5C155.975 29.951 152.308 32.451 148.5 35C146.135 36.7895 144.468 38.9561 143.5 41.5C138.412 44.5712 133.078 47.2378 127.5 49.5C133.052 46.5204 137.718 42.3538 141.5 37C145.806 34.4069 149.973 31.5736 154 28.5C155.766 27.7665 157.599 27.4332 159.5 27.5Z" fill="#E7D7AE"/>
<path fill-rule="evenodd" clip-rule="evenodd" d="M191.5 36.5C190.039 35.3143 188.705 35.3143 187.5 36.5C182.489 36.3341 177.489 36.5007 172.5 37C171 38.5 169.5 40 168 41.5C167.505 43.4727 167.338 45.4727 167.5 47.5C166.034 44.4045 166.368 41.4045 168.5 38.5C168.167 38.1667 167.833 37.8333 167.5 37.5C166.482 38.1925 165.482 38.8592 164.5 39.5C164.414 38.5041 164.748 37.6708 165.5 37C168.213 35.7247 171.047 34.8914 174 34.5C178.148 35.5925 182.315 35.5925 186.5 34.5C188.64 34.5561 190.306 35.2227 191.5 36.5Z" fill="#DFD4AB"/>
<path fill-rule="evenodd" clip-rule="evenodd" d="M111.5 28.5C110.145 36.9343 112.478 44.101 118.5 50C121.531 50.4954 124.531 50.3287 127.5 49.5C126.993 50.8589 125.993 51.8589 124.5 52.5C125.005 53.9185 126.005 54.5852 127.5 54.5C131.371 54.185 135.038 54.5184 138.5 55.5C134.853 56.9913 131.186 58.3246 127.5 59.5C122.475 59.2977 117.808 57.9643 113.5 55.5C112.194 54.5326 111.527 53.1993 111.5 51.5C109.25 51.8186 107.25 51.3186 105.5 50C107.767 48.9188 107.934 47.4188 106 45.5C105.501 40.8452 105.334 36.1785 105.5 31.5C106.167 31.5 106.833 31.5 107.5 31.5C108.833 30.5 110.167 29.5 111.5 28.5Z" fill="#E9CE84"/>
<path fill-rule="evenodd" clip-rule="evenodd" d="M239.5 57.5C238.432 58.4345 237.099 58.7678 235.5 58.5C234.282 57.8386 232.949 57.1719 231.5 56.5C234.041 55.0633 236.708 53.8966 239.5 53C241.464 51.549 242.797 49.7157 243.5 47.5C245.875 42.184 246.875 36.5173 246.5 30.5C247.321 33.6414 247.821 36.9748 248 40.5C248.808 38.5767 249.308 36.5767 249.5 34.5C246.608 25.625 247.441 25.2916 252 33.5C253.721 40.9635 251.887 47.2968 246.5 52.5C243.285 54.2035 239.951 55.7035 236.5 57C237.448 57.4828 238.448 57.6495 239.5 57.5Z" fill="#F8EBAD"/>
<path fill-rule="evenodd" clip-rule="evenodd" d="M105.5 31.5C105.334 36.1785 105.501 40.8452 106 45.5C107.934 47.4188 107.767 48.9188 105.5 50C107.25 51.3186 109.25 51.8186 111.5 51.5C111.527 53.1993 112.194 54.5326 113.5 55.5C108.566 55.7709 103.9 55.1042 99.5 53.5C105.817 52.769 105.483 52.1023 98.5 51.5C98.5 50.5 98.5 49.5 98.5 48.5C100.099 48.7678 101.432 48.4345 102.5 47.5C103.497 47.5299 104.164 47.0299 104.5 46C103.158 40.9433 103.492 36.11 105.5 31.5Z" fill="#EFDFB9"/>
<path fill-rule="evenodd" clip-rule="evenodd" d="M187.5 36.5C188.705 35.3143 190.039 35.3143 191.5 36.5C195.129 39.6679 196.629 43.6679 196 48.5C193.735 53.2466 190.568 54.2466 186.5 51.5C185.005 51.5852 184.005 50.9185 183.5 49.5C185.813 48.7267 188.146 48.0601 190.5 47.5C192.331 42.8694 191.331 39.2027 187.5 36.5Z" fill="#BFAC72"/>
<path fill-rule="evenodd" clip-rule="evenodd" d="M186.5 51.5C188.214 50.2616 190.214 49.595 192.5 49.5C193.959 41.6012 194.459 41.6012 194 49.5C191.865 51.2785 189.365 51.9452 186.5 51.5Z" fill="#F9EAA5"/>
<path fill-rule="evenodd" clip-rule="evenodd" d="M167.5 47.5C170.68 47.6614 173.347 48.6614 175.5 50.5C171.965 54.1374 168.299 54.304 164.5 51C163.549 47.9433 163.216 44.7766 163.5 41.5C164.338 41.1583 164.672 40.4916 164.5 39.5C165.482 38.8592 166.482 38.1925 167.5 37.5C167.833 37.8333 168.167 38.1667 168.5 38.5C166.368 41.4045 166.034 44.4045 167.5 47.5Z" fill="#E1CB7E"/>
<path fill-rule="evenodd" clip-rule="evenodd" d="M251.5 49.5C261.969 49.1891 262.136 50.1891 252 52.5C250.317 51.8235 250.15 50.8235 251.5 49.5Z" fill="#F3E1C4"/>
<path fill-rule="evenodd" clip-rule="evenodd" d="M163.5 41.5C163.216 44.7766 163.549 47.9433 164.5 51C168.299 54.304 171.965 54.1374 175.5 50.5C175.426 52.4109 174.426 53.5776 172.5 54C169.097 54.7381 165.93 54.2381 163 52.5C161.893 52.5852 160.893 52.9186 160 53.5C161.814 49.8248 162.98 45.8248 163.5 41.5Z" fill="#FAF3D8"/>
<path fill-rule="evenodd" clip-rule="evenodd" d="M243.5 47.5C242.797 49.7157 241.464 51.549 239.5 53C236.708 53.8966 234.041 55.0633 231.5 56.5C232.949 57.1719 234.282 57.8386 235.5 58.5C233.5 58.5 231.5 58.5 229.5 58.5C223.967 57.7333 219.3 55.4 215.5 51.5C215.5 51.1667 215.5 50.8333 215.5 50.5C221.883 54.7996 228.549 55.4663 235.5 52.5C235.5 52.1667 235.5 51.8333 235.5 51.5C236.873 51.6567 238.207 51.49 239.5 51C240.532 49.3732 241.866 48.2066 243.5 47.5Z" fill="#BD9D58"/>
<path fill-rule="evenodd" clip-rule="evenodd" d="M245.5 55.5C248.205 55.3802 248.872 56.3802 247.5 58.5C250.5 60.3333 253.5 62.1667 256.5 64C255.944 64.3826 255.611 64.8826 255.5 65.5C251.285 63.9576 247.285 61.9576 243.5 59.5C242.068 59.7332 241.568 60.3999 242 61.5C244.687 62.582 246.854 64.2486 248.5 66.5C244.921 66.7657 244.587 68.099 247.5 70.5C247 70.8333 246.5 71.1667 246 71.5C244.14 69.7991 241.973 68.7991 239.5 68.5C239.343 67.1266 239.51 65.7932 240 64.5C242.151 67.112 242.985 67.112 242.5 64.5C238.175 62.2423 233.842 60.2423 229.5 58.5C231.5 58.5 233.5 58.5 235.5 58.5C237.099 58.7678 238.432 58.4345 239.5 57.5C241.5 56.8333 243.5 56.1667 245.5 55.5Z" fill="#FBF5E8"/>
<path fill-rule="evenodd" clip-rule="evenodd" d="M245.5 55.5C247.265 54.5386 249.265 54.2053 251.5 54.5C251.261 56.4672 251.594 58.3005 252.5 60C261.027 65.0981 269.027 70.9314 276.5 77.5C276.483 79.0281 275.816 79.5281 274.5 79C269.687 74.4305 264.687 70.0971 259.5 66C258.184 65.4719 257.517 65.9719 257.5 67.5C256.5 67.1667 255.833 66.5 255.5 65.5C255.611 64.8826 255.944 64.3826 256.5 64C253.5 62.1667 250.5 60.3333 247.5 58.5C248.872 56.3802 248.205 55.3802 245.5 55.5Z" fill="#D4C287"/>
<path fill-rule="evenodd" clip-rule="evenodd" d="M285.5 63.5C286.222 63.9175 286.722 64.5842 287 65.5C287.498 68.8168 287.665 72.1501 287.5 75.5C286.883 75.6107 286.383 75.944 286 76.5C285.501 72.1794 285.334 67.8461 285.5 63.5Z" fill="#FBE9BE"/>
<path fill-rule="evenodd" clip-rule="evenodd" d="M93.5 69.5C91.7609 72.41 89.4276 74.91 86.5 77C85.5632 77.6917 84.8966 77.525 84.5 76.5C87.2085 73.7915 90.2085 71.4581 93.5 69.5Z" fill="#D2C884"/>
<path fill-rule="evenodd" clip-rule="evenodd" d="M285.5 63.5C285.334 67.8461 285.501 72.1794 286 76.5C286.383 75.944 286.883 75.6107 287.5 75.5C287.167 76.8333 286.833 78.1667 286.5 79.5C284 81.167 281.333 82.5004 278.5 83.5C278.606 80.8915 279.772 78.8915 282 77.5C282.649 72.4557 283.815 67.7891 285.5 63.5Z" fill="#C5B461"/>
<path fill-rule="evenodd" clip-rule="evenodd" d="M255.5 65.5C255.833 66.5 256.5 67.1667 257.5 67.5C267.146 74.4809 275.813 82.4809 283.5 91.5C283.631 92.2389 283.464 92.9056 283 93.5C282.329 92.7476 281.496 92.4142 280.5 92.5C271.675 81.4398 261.009 72.7732 248.5 66.5C246.854 64.2486 244.687 62.582 242 61.5C241.568 60.3999 242.068 59.7332 243.5 59.5C247.285 61.9576 251.285 63.9576 255.5 65.5Z" fill="#C19A3C"/>
<path fill-rule="evenodd" clip-rule="evenodd" d="M75.5 85.5C76.525 85.8966 76.6917 86.5632 76 87.5C71.2597 92.7311 66.7597 98.0644 62.5 103.5C63.4732 100.366 64.8066 97.3662 66.5 94.5C69.548 91.452 72.548 88.452 75.5 85.5Z" fill="#CEC394"/>
<path fill-rule="evenodd" clip-rule="evenodd" d="M280.5 59.5C282.551 60.4871 284.218 61.8205 285.5 63.5C283.815 67.7891 282.649 72.4557 282 77.5C279.772 78.8915 278.606 80.8915 278.5 83.5C281.333 82.5004 284 81.167 286.5 79.5C286.103 81.6621 284.769 82.9954 282.5 83.5C282.863 84.1835 283.196 84.8501 283.5 85.5C282.475 85.8966 282.308 86.5632 283 87.5C291.775 97.4259 299.275 108.093 305.5 119.5C315.434 142.434 319.768 166.434 318.5 191.5C315.086 221.911 303.253 248.578 283 271.5C282.472 272.816 282.972 273.483 284.5 273.5C284.167 274.833 283.833 276.167 283.5 277.5C281.716 276.28 280.05 276.28 278.5 277.5C277.609 276.89 276.609 276.557 275.5 276.5C280.584 271.752 284.917 266.419 288.5 260.5C307.04 237.104 316.04 210.27 315.5 180C315.792 146.362 305.125 116.862 283.5 91.5C275.813 82.4809 267.146 74.4809 257.5 67.5C257.517 65.9719 258.184 65.4719 259.5 66C264.687 70.0971 269.687 74.4305 274.5 79C275.816 79.5281 276.483 79.0281 276.5 77.5C277.682 75.9005 279.015 75.5672 280.5 76.5C283.158 70.7815 283.158 65.1149 280.5 59.5Z" fill="#F5EBD0"/>
<path fill-rule="evenodd" clip-rule="evenodd" d="M283.5 85.5C293.206 95.2237 300.539 106.557 305.5 119.5C299.275 108.093 291.775 97.4259 283 87.5C282.308 86.5632 282.475 85.8966 283.5 85.5Z" fill="#BEA876"/>
<path fill-rule="evenodd" clip-rule="evenodd" d="M117.5 59.5C117.218 60.7777 116.551 61.7777 115.5 62.5C85.6628 79.2535 64.9962 103.587 53.5 135.5C53.6567 134.127 53.49 132.793 53 131.5C52.6174 132.056 52.1174 132.389 51.5 132.5C63.2908 100.866 83.9575 76.6995 113.5 60C114.793 59.51 116.127 59.3433 117.5 59.5Z" fill="#C6A959"/>
<path fill-rule="evenodd" clip-rule="evenodd" d="M57.5 111.5C54.3702 119.105 51.2035 126.771 48 134.5C47.5357 133.906 47.369 133.239 47.5 132.5C49.8571 126.616 52.0237 120.616 54 114.5C54.7589 112.937 55.9256 111.937 57.5 111.5Z" fill="#C7C184"/>
<path fill-rule="evenodd" clip-rule="evenodd" d="M283.5 91.5C305.125 116.862 315.792 146.362 315.5 180C316.04 210.27 307.04 237.104 288.5 260.5C288.672 259.508 288.338 258.842 287.5 258.5C290.567 254.091 293.233 249.424 295.5 244.5C298.639 240.776 300.639 236.443 301.5 231.5C305.293 223.788 308.293 215.788 310.5 207.5C311.957 202.402 312.624 197.069 312.5 191.5C312.667 180.828 312.5 170.161 312 159.5C311.495 157.482 310.995 155.482 310.5 153.5C310.59 150.848 309.924 148.515 308.5 146.5C303.855 125.872 294.522 107.872 280.5 92.5C281.496 92.4142 282.329 92.7476 283 93.5C283.464 92.9056 283.631 92.2389 283.5 91.5Z" fill="#A98533"/>
<path fill-rule="evenodd" clip-rule="evenodd" d="M305.5 119.5C308.755 124.35 311.255 129.683 313 135.5C319.347 154.501 321.18 173.835 318.5 193.5C318.5 192.833 318.5 192.167 318.5 191.5C319.768 166.434 315.434 142.434 305.5 119.5Z" fill="#B59C65"/>
<path fill-rule="evenodd" clip-rule="evenodd" d="M53.5 135.5C49.9108 145.861 47.5774 156.527 46.5 167.5C45.6708 175.323 45.1708 183.323 45 191.5C44.5002 180.839 44.3335 170.172 44.5 159.5C46.2038 150.305 48.5372 141.305 51.5 132.5C52.1174 132.389 52.6174 132.056 53 131.5C53.49 132.793 53.6567 134.127 53.5 135.5Z" fill="#BB9D43"/>
<path fill-rule="evenodd" clip-rule="evenodd" d="M308.5 146.5C309.924 148.515 310.59 150.848 310.5 153.5C309.076 151.485 308.41 149.152 308.5 146.5Z" fill="#DFD1A1"/>
<path fill-rule="evenodd" clip-rule="evenodd" d="M117.5 59.5C116.127 59.3433 114.793 59.51 113.5 60C83.9575 76.6995 63.2908 100.866 51.5 132.5C48.5372 141.305 46.2038 150.305 44.5 159.5C42.357 178.91 43.5236 198.243 48 217.5C50.3003 225.243 53.467 232.576 57.5 239.5C65.8944 257.076 77.5611 272.243 92.5 285C96.7514 287.945 100.751 291.112 104.5 294.5C103.127 294.657 101.793 294.49 100.5 294C94.7921 289.805 89.4588 285.138 84.5 280C83.184 279.472 82.5173 279.972 82.5 281.5C81.8999 280.1 80.8999 279.1 79.5 278.5C80.8856 276.24 80.2189 275.406 77.5 276C74.6424 277.694 72.309 279.861 70.5 282.5C70.5589 279.951 69.5589 277.951 67.5 276.5C69.5 276.167 71.5 275.833 73.5 275.5C71.9182 273.423 70.9182 271.09 70.5 268.5C71.6594 269.456 72.8261 270.456 74 271.5C74.5 271.333 75 271.167 75.5 271C71.6346 266.306 67.6346 261.806 63.5 257.5C60.1134 257.138 58.4467 255.138 58.5 251.5C59.8846 252.574 61.0513 253.907 62 255.5C62.1667 255.167 62.3333 254.833 62.5 254.5C44.3919 225.37 37.5586 193.703 42 159.5C43.1598 154.208 43.9932 148.875 44.5 143.5C44.5165 139.466 45.5165 135.799 47.5 132.5C47.369 133.239 47.5357 133.906 48 134.5C51.2035 126.771 54.3702 119.105 57.5 111.5C57.6697 107.814 59.3363 105.147 62.5 103.5C66.7597 98.0644 71.2597 92.7311 76 87.5C76.6917 86.5632 76.525 85.8966 75.5 85.5C75.719 84.325 75.3857 83.325 74.5 82.5C73.3523 84.1487 72.019 85.6487 70.5 87C69.6683 87.6877 69.0016 87.521 68.5 86.5C69.9526 83.8941 71.6193 81.5608 73.5 79.5C74.911 81.539 76.911 82.539 79.5 82.5C79.5 81.5 79.5 80.5 79.5 79.5C81.3325 78.7515 82.9991 77.7515 84.5 76.5C84.8966 77.525 85.5632 77.6917 86.5 77C89.4276 74.91 91.7609 72.41 93.5 69.5C94.1408 68.5178 94.8075 67.5178 95.5 66.5C100.189 64.159 104.523 61.3256 108.5 58C111.68 57.8632 114.68 58.3632 117.5 59.5Z" fill="#F5ECD4"/>
<path fill-rule="evenodd" clip-rule="evenodd" d="M312.5 191.5C312.624 197.069 311.957 202.402 310.5 207.5C310.527 201.949 311.194 196.616 312.5 191.5Z" fill="#B9A061"/>
<path fill-rule="evenodd" clip-rule="evenodd" d="M44.5 143.5C43.9932 148.875 43.1598 154.208 42 159.5C37.5586 193.703 44.3919 225.37 62.5 254.5C62.3333 254.833 62.1667 255.167 62 255.5C61.0513 253.907 59.8846 252.574 58.5 251.5C40.8756 219.32 35.3756 184.987 42 148.5C42.7568 146.685 43.5902 145.019 44.5 143.5Z" fill="#CCB985"/>
<path fill-rule="evenodd" clip-rule="evenodd" d="M44.5 159.5C44.3335 170.172 44.5002 180.839 45 191.5C45.1708 183.323 45.6708 175.323 46.5 167.5C46.2797 180.88 46.9464 194.214 48.5 207.5C51.5628 218.44 55.2294 229.106 59.5 239.5C58.8333 239.5 58.1667 239.5 57.5 239.5C53.467 232.576 50.3003 225.243 48 217.5C43.5236 198.243 42.357 178.91 44.5 159.5Z" fill="#C5A257"/>
<path fill-rule="evenodd" clip-rule="evenodd" d="M301.5 231.5C300.639 236.443 298.639 240.776 295.5 244.5C294.699 242.958 294.366 241.292 294.5 239.5C295.5 239.5 296.5 239.5 297.5 239.5C297.829 236.173 299.163 233.507 301.5 231.5Z" fill="#FAF5DB"/>
<path fill-rule="evenodd" clip-rule="evenodd" d="M318.5 191.5C318.5 192.167 318.5 192.833 318.5 193.5C317.146 210.252 312.979 226.252 306 241.5C299.408 252.585 292.242 263.251 284.5 273.5C282.972 273.483 282.472 272.816 283 271.5C303.253 248.578 315.086 221.911 318.5 191.5Z" fill="#B3A570"/>
<path fill-rule="evenodd" clip-rule="evenodd" d="M63.5 257.5C67.6346 261.806 71.6346 266.306 75.5 271C75 271.167 74.5 271.333 74 271.5C72.8261 270.456 71.6594 269.456 70.5 268.5C69.8913 266.057 68.3913 264.39 66 263.5C64.8777 261.58 64.0444 259.58 63.5 257.5Z" fill="#D3C388"/>
<path fill-rule="evenodd" clip-rule="evenodd" d="M57.5 239.5C58.1667 239.5 58.8333 239.5 59.5 239.5C66.0834 248.999 72.4167 258.666 78.5 268.5C79.675 268.281 80.675 268.614 81.5 269.5C91.0003 280.903 102.334 289.903 115.5 296.5C115.38 297.586 114.713 298.253 113.5 298.5C110.489 297.147 107.489 295.814 104.5 294.5C100.751 291.112 96.7514 287.945 92.5 285C77.5611 272.243 65.8944 257.076 57.5 239.5Z" fill="#C8AD59"/>
<path fill-rule="evenodd" clip-rule="evenodd" d="M274.5 277.5C275.8 278.601 276.3 279.934 276 281.5C270.401 287.035 264.235 291.702 257.5 295.5C262.17 290.966 267.17 286.633 272.5 282.5C273.798 280.948 273.465 279.948 271.5 279.5C272.29 278.599 273.29 277.932 274.5 277.5Z" fill="#C4BF7A"/>
<path fill-rule="evenodd" clip-rule="evenodd" d="M79.5 278.5C74.5754 283.585 73.2421 289.585 75.5 296.5C72.8558 291.609 72.8558 286.609 75.5 281.5C75.1667 281.167 74.8333 280.833 74.5 280.5C71.3358 285.461 70.6691 290.795 72.5 296.5C71.0337 295.653 70.2004 294.32 70 292.5C69.4572 289.132 69.6239 285.799 70.5 282.5C72.309 279.861 74.6424 277.694 77.5 276C80.2189 275.406 80.8856 276.24 79.5 278.5Z" fill="#CEB578"/>
<path fill-rule="evenodd" clip-rule="evenodd" d="M287.5 258.5C288.338 258.842 288.672 259.508 288.5 260.5C284.917 266.419 280.584 271.752 275.5 276.5C274.833 276.5 274.5 276.833 274.5 277.5C273.29 277.932 272.29 278.599 271.5 279.5C270.04 281.463 268.373 283.296 266.5 285C260.658 288.754 254.991 292.754 249.5 297C247.091 298.707 244.425 299.54 241.5 299.5C242.475 297.807 243.808 296.307 245.5 295C262.178 285.816 276.178 273.649 287.5 258.5Z" fill="#BD9C3B"/>
<path fill-rule="evenodd" clip-rule="evenodd" d="M75.5 295.5C77.6689 297.34 79.0023 299.674 79.5 302.5C75.6285 301.793 73.2952 299.46 72.5 295.5C70.6691 289.795 71.3358 284.461 74.5 279.5C74.8333 279.833 75.1667 280.167 75.5 280.5C72.8558 285.609 72.8558 290.609 75.5 295.5Z" fill="#E4CB7C"/>
<path fill-rule="evenodd" clip-rule="evenodd" d="M104.5 294.5C107.489 295.814 110.489 297.147 113.5 298.5C114.713 298.253 115.38 297.586 115.5 296.5C117.549 296.706 117.883 297.539 116.5 299C114.22 299.212 112.22 300.045 110.5 301.5C99.9739 296.365 90.6406 289.698 82.5 281.5C82.5173 279.972 83.184 279.472 84.5 280C89.4588 285.138 94.7921 289.805 100.5 294C101.793 294.49 103.127 294.657 104.5 294.5Z" fill="#E5D6AB"/>
<path fill-rule="evenodd" clip-rule="evenodd" d="M271.5 279.5C273.465 279.948 273.798 280.948 272.5 282.5C267.17 286.633 262.17 290.966 257.5 295.5C256.433 297.7 255.767 299.7 255.5 301.5C254.554 301.013 253.554 300.68 252.5 300.5C249.955 303.038 247.455 303.038 245 300.5C243.699 300.639 242.866 301.305 242.5 302.5C234.712 299.661 227.046 299.994 219.5 303.5C219.077 300.712 220.077 298.712 222.5 297.5C228.332 299.148 234.332 300.148 240.5 300.5C241.107 300.376 241.44 300.043 241.5 299.5C244.425 299.54 247.091 298.707 249.5 297C254.991 292.754 260.658 288.754 266.5 285C268.373 283.296 270.04 281.463 271.5 279.5Z" fill="#F8EED7"/>
<path fill-rule="evenodd" clip-rule="evenodd" d="M254.5 295.5C256.337 295.639 256.67 296.306 255.5 297.5C254.131 299.124 252.464 299.624 250.5 299C252.093 298.051 253.426 296.885 254.5 295.5Z" fill="#BDB564"/>
<path fill-rule="evenodd" clip-rule="evenodd" d="M143.5 306.5C144.625 307.652 144.625 308.652 143.5 309.5C140.235 307.968 136.902 306.635 133.5 305.5C131.034 304.366 128.367 304.199 125.5 305C123.789 306.776 121.789 307.942 119.5 308.5C117.5 310.167 115.5 311.833 113.5 313.5C114.048 311.606 115.048 309.94 116.5 308.5C115.722 306.616 115.389 304.95 115.5 303.5C116.347 302.034 117.68 301.2 119.5 301C128.544 299.119 136.544 300.952 143.5 306.5Z" fill="#EAD494"/>
<path fill-rule="evenodd" clip-rule="evenodd" d="M283.5 277.5C290.472 283.613 291.305 290.613 286 298.5C281.286 304.109 275.453 308.109 268.5 310.5C276.473 317.758 278.473 326.425 274.5 336.5C272.359 338.968 269.692 340.634 266.5 341.5C265.833 341.167 265.167 340.833 264.5 340.5C265.193 339.482 265.859 338.482 266.5 337.5C269.012 335.522 270.512 332.855 271 329.5C271.669 325.351 271.169 321.351 269.5 317.5C270.966 318.347 271.8 319.68 272 321.5C273.451 327.639 272.284 333.139 268.5 338C270.387 338.163 271.887 337.329 273 335.5C275.199 329.024 274.865 322.691 272 316.5C270.736 314.393 268.903 313.393 266.5 313.5C265.29 313.068 264.29 312.401 263.5 311.5C260.885 309.382 257.218 307.715 252.5 306.5C251.833 306.667 251.167 306.833 250.5 307C251.38 308.356 251.714 309.856 251.5 311.5C247.356 306.427 242.022 303.427 235.5 302.5C233.955 302.511 232.622 302.844 231.5 303.5C227.405 303.808 223.405 304.641 219.5 306C216.335 308.335 213.335 310.835 210.5 313.5C209.833 313.5 209.5 313.167 209.5 312.5C212.833 309.5 216.167 306.5 219.5 303.5C227.046 299.994 234.712 299.661 242.5 302.5C246.75 303.272 251.083 303.772 255.5 304C265.423 310.874 273.923 309.374 281 299.5C286.141 291.373 285.308 284.04 278.5 277.5C280.05 276.28 281.716 276.28 283.5 277.5Z" fill="#C6B067"/>
<path fill-rule="evenodd" clip-rule="evenodd" d="M79.5 303.5C82.9194 304.708 86.2527 306.208 89.5 308C91.4727 308.495 93.4727 308.662 95.5 308.5C93.4123 309.201 91.4123 310.201 89.5 311.5C85.9004 309.241 82.567 306.574 79.5 303.5Z" fill="#D1BD8F"/>
<path fill-rule="evenodd" clip-rule="evenodd" d="M166.5 316.5C164.612 314.012 163.945 311.012 164.5 307.5C165.514 306.235 167.014 305.569 169 305.5C177.512 308.336 177.345 310.169 168.5 311C167.139 312.584 166.472 314.418 166.5 316.5Z" fill="#DFC780"/>
<path fill-rule="evenodd" clip-rule="evenodd" d="M263.5 311.5C260.5 311.5 257.5 311.5 254.5 311.5C254.5 312.833 254.5 314.167 254.5 315.5C253.5 314.167 252.5 312.833 251.5 311.5C251.714 309.856 251.38 308.356 250.5 307C251.167 306.833 251.833 306.667 252.5 306.5C257.218 307.715 260.885 309.382 263.5 311.5Z" fill="#EED7AC"/>
<path fill-rule="evenodd" clip-rule="evenodd" d="M133.5 305.5C131.076 305.192 128.743 305.526 126.5 306.5C129.783 309.482 133.449 311.982 137.5 314C144.198 320.89 151.531 326.723 159.5 331.5C157.436 331.313 155.436 330.813 153.5 330C146.317 324.573 139.317 318.906 132.5 313C128.387 310.686 124.054 309.186 119.5 308.5C121.789 307.942 123.789 306.776 125.5 305C128.367 304.199 131.034 304.366 133.5 305.5Z" fill="#E2D9AB"/>
<path fill-rule="evenodd" clip-rule="evenodd" d="M251.5 311.5C252.368 315.808 252.534 320.141 252 324.5C251.439 327.29 250.106 329.623 248 331.5C250.568 321.749 248.068 313.583 240.5 307C238.235 305.882 235.901 305.049 233.5 304.5C232.508 304.672 231.842 304.338 231.5 303.5C232.622 302.844 233.955 302.511 235.5 302.5C242.022 303.427 247.356 306.427 251.5 311.5Z" fill="#FBEEA9"/>
<path fill-rule="evenodd" clip-rule="evenodd" d="M143.5 306.5C147.479 310.308 151.646 313.975 156 317.5C156.49 318.793 156.657 320.127 156.5 321.5C157.5 321.5 158.5 321.5 159.5 321.5C162.03 325.415 165.697 327.749 170.5 328.5C170.5 328.833 170.5 329.167 170.5 329.5C165.648 328.61 160.981 327.276 156.5 325.5C156.649 324.448 156.483 323.448 156 322.5C151.097 318.683 146.931 314.35 143.5 309.5C144.625 308.652 144.625 307.652 143.5 306.5Z" fill="#E9E3B1"/>
<path fill-rule="evenodd" clip-rule="evenodd" d="M115.5 303.5C115.389 304.95 115.722 306.616 116.5 308.5C115.048 309.94 114.048 311.606 113.5 313.5C111.738 318.596 111.071 323.93 111.5 329.5C111.565 329.938 111.399 330.272 111 330.5C109.961 329.29 108.794 328.29 107.5 327.5C103.613 322.005 103.613 316.338 107.5 310.5C105.342 309.998 103.009 309.998 100.5 310.5C95.7645 310.953 92.2645 313.286 90 317.5C89.3509 320.94 88.5176 324.273 87.5 327.5C88.0497 330.263 88.8831 332.93 90 335.5C91.2635 337.607 93.0968 338.607 95.5 338.5C95.5 339.833 95.5 341.167 95.5 342.5C88.5309 341.363 84.3642 337.363 83 330.5C81.7765 322.959 83.9432 316.625 89.5 311.5C91.4123 310.201 93.4123 309.201 95.5 308.5C101.318 304.099 107.984 302.433 115.5 303.5Z" fill="#E4C578"/>
<path fill-rule="evenodd" clip-rule="evenodd" d="M103.5 306.5C105.199 306.34 106.866 306.506 108.5 307C105.819 309.07 102.819 309.736 99.5 309C100.858 308.066 102.192 307.232 103.5 306.5Z" fill="#FCF0C5"/>
<path fill-rule="evenodd" clip-rule="evenodd" d="M193.5 320.5C192.038 321.458 190.705 322.624 189.5 324C182.833 323.333 176.167 323.333 169.5 324C164.331 320.494 162.331 315.661 163.5 309.5C163.328 308.508 163.662 307.842 164.5 307.5C163.945 311.012 164.612 314.012 166.5 316.5C166.852 319.079 168.186 320.913 170.5 322C176.5 321.333 182.5 321.333 188.5 322C191.15 319.107 192.15 315.607 191.5 311.5C192.966 312.347 193.8 313.68 194 315.5C195.5 309.165 193 306.499 186.5 307.5C189.416 304.912 192.249 305.246 195 308.5C195.919 312.731 195.419 316.731 193.5 320.5Z" fill="#CDB782"/>
<path fill-rule="evenodd" clip-rule="evenodd" d="M186.5 307.5C193 306.499 195.5 309.165 194 315.5C193.8 313.68 192.966 312.347 191.5 311.5C190.409 309.466 188.743 308.132 186.5 307.5Z" fill="#F8EA9E"/>
<path fill-rule="evenodd" clip-rule="evenodd" d="M186.5 307.5C188.743 308.132 190.409 309.466 191.5 311.5C188.797 311.048 186.13 310.381 183.5 309.5C184.005 308.081 185.005 307.415 186.5 307.5Z" fill="#C4AA74"/>
<path fill-rule="evenodd" clip-rule="evenodd" d="M163.5 309.5C162.331 315.661 164.331 320.494 169.5 324C176.167 323.333 182.833 323.333 189.5 324C190.705 322.624 192.038 321.458 193.5 320.5C195.048 320.821 195.715 321.821 195.5 323.5C196.5 323.5 197.5 323.5 198.5 323.5C192.834 328.495 186.5 329.495 179.5 326.5C176.521 327.328 173.521 327.995 170.5 328.5C165.697 327.749 162.03 325.415 159.5 321.5C160.5 321.5 161.5 321.5 162.5 321.5C162.183 317.298 162.517 313.298 163.5 309.5Z" fill="#FAF7EA"/>
<path fill-rule="evenodd" clip-rule="evenodd" d="M224.5 328.5C223.539 326.735 223.205 324.735 223.5 322.5C225.134 321.793 226.468 320.627 227.5 319C228.167 318.333 228.833 318.333 229.5 319C228.095 320.977 227.095 323.143 226.5 325.5C227.351 327.853 227.851 330.187 228 332.5C227.051 330.907 225.885 329.574 224.5 328.5Z" fill="#E2C76B"/>
<path fill-rule="evenodd" clip-rule="evenodd" d="M209.5 312.5C209.5 313.167 209.833 313.5 210.5 313.5C206.236 320.182 200.57 325.349 193.5 329C190.183 329.498 186.85 329.665 183.5 329.5C179.238 328.908 174.905 328.908 170.5 329.5C170.5 329.167 170.5 328.833 170.5 328.5C173.521 327.995 176.521 327.328 179.5 326.5C186.5 329.495 192.834 328.495 198.5 323.5C202.527 320.14 206.194 316.473 209.5 312.5Z" fill="#C4B57E"/>
<path fill-rule="evenodd" clip-rule="evenodd" d="M208.5 326.5C205.525 329.661 201.858 331.828 197.5 333C194.833 333.667 192.167 333.667 189.5 333C196.243 331.959 202.576 329.792 208.5 326.5Z" fill="#B9A56D"/>
<path fill-rule="evenodd" clip-rule="evenodd" d="M233.5 304.5C235.901 305.049 238.235 305.882 240.5 307C248.068 313.583 250.568 321.749 248 331.5C250.106 329.623 251.439 327.29 252 324.5C252.534 320.141 252.368 315.808 251.5 311.5C252.5 312.833 253.5 314.167 254.5 315.5C254.312 333.18 245.645 339.68 228.5 335C226.93 333.603 225.596 332.103 224.5 330.5C224.5 329.833 224.5 329.167 224.5 328.5C225.885 329.574 227.051 330.907 228 332.5C227.851 330.187 227.351 327.853 226.5 325.5C227.095 323.143 228.095 320.977 229.5 319C228.833 318.333 228.167 318.333 227.5 319C226.468 320.627 225.134 321.793 223.5 322.5C225.009 317.915 228.009 316.249 232.5 317.5C231.139 319.028 229.972 320.695 229 322.5C227.823 331.989 231.989 336.156 241.5 335C250.149 324.692 248.982 315.526 238 307.5C234.384 308.814 230.884 310.314 227.5 312C221.296 317.042 214.962 321.876 208.5 326.5C216.389 318.22 225.389 311.387 235.5 306C234.584 305.722 233.918 305.222 233.5 304.5Z" fill="#C2AF6D"/>
<path fill-rule="evenodd" clip-rule="evenodd" d="M266.5 313.5C268.903 313.393 270.736 314.393 272 316.5C274.865 322.691 275.199 329.024 273 335.5C271.887 337.329 270.387 338.163 268.5 338C272.284 333.139 273.451 327.639 272 321.5C271.8 319.68 270.966 318.347 269.5 317.5C268.026 316.564 267.026 315.23 266.5 313.5Z" fill="#F8E89F"/>
<path fill-rule="evenodd" clip-rule="evenodd" d="M107.5 327.5C108.794 328.29 109.961 329.29 111 330.5C111.399 330.272 111.565 329.938 111.5 329.5C113.461 331.121 115.461 332.787 117.5 334.5C125.055 336.291 129.388 333.291 130.5 325.5C130.382 322.645 129.382 320.145 127.5 318C127.833 317.5 128.167 317 128.5 316.5C134.723 318.11 136.889 322.11 135 328.5C133.657 333.337 130.49 336.17 125.5 337C116.691 338.807 110.691 335.64 107.5 327.5Z" fill="#E2CF8A"/>
<path fill-rule="evenodd" clip-rule="evenodd" d="M217.5 333.5C218.959 333.433 220.292 333.766 221.5 334.5C223.461 337.841 223.961 341.508 223 345.5C222.586 345.957 222.086 346.291 221.5 346.5C221.125 342.238 219.125 339.071 215.5 337C210.292 335.603 204.959 335.103 199.5 335.5C203.488 333.414 207.822 332.08 212.5 331.5C214.557 331.436 216.223 332.102 217.5 333.5Z" fill="#B99F5D"/>
<path fill-rule="evenodd" clip-rule="evenodd" d="M159.5 331.5C163.228 331.795 166.895 332.461 170.5 333.5C166.459 334.227 162.459 334.894 158.5 335.5C157.833 334.833 157.167 334.167 156.5 333.5C158.179 333.715 159.179 333.048 159.5 331.5Z" fill="#F0E9C1"/>
<path fill-rule="evenodd" clip-rule="evenodd" d="M156.5 333.5C157.167 334.167 157.833 334.833 158.5 335.5C153.167 335.5 147.833 335.5 142.5 335.5C142.785 337.288 142.452 338.955 141.5 340.5C139.102 341.898 137.435 343.898 136.5 346.5C134.985 341.34 135.651 336.506 138.5 332C144.629 331.177 150.629 331.677 156.5 333.5Z" fill="#EDD591"/>
<path fill-rule="evenodd" clip-rule="evenodd" d="M217.5 333.5C218.315 334.837 219.482 335.837 221 336.5C222.301 338.365 222.635 340.365 222 342.5C220.291 337.459 216.791 334.625 211.5 334C213.473 333.505 215.473 333.338 217.5 333.5Z" fill="#FAE799"/>
<path fill-rule="evenodd" clip-rule="evenodd" d="M274.5 336.5C274.67 337.822 274.337 338.989 273.5 340C271.361 341.404 269.028 342.237 266.5 342.5C264.448 342.384 263.115 341.384 262.5 339.5C263.32 337.889 264.654 337.222 266.5 337.5C265.859 338.482 265.193 339.482 264.5 340.5C265.167 340.833 265.833 341.167 266.5 341.5C269.692 340.634 272.359 338.968 274.5 336.5Z" fill="#F7F2CB"/>
</svg>
